#!OML:ASF C:\ViconDB\ViconDB\414\Spring2016\041811\Spring2016.ASF
:FULLY-SPECIFIED
:DEGREES
247
root 6.8962 18.8355 -40.4291 -180.275 -4.68654 184.903
lowerback -1.22482 3.638 2.10934
upperback 0.5767 4.70507 2.5591
thorax 1.23217 2.32315 1.5508
lowerneck -13.1488 -6.50357 -14.3128
upperneck 24.8876 -10.9916 13.4657
head 11.8642 -5.37042 5.73866
rclavicle -1.01722e-014 -2.42517e-014
rhumerus -43.8778 14.2382 -94.7274
rradius 126.372
rwrist 6.33383
rhand -36.0111 -11.421
rfingers 7.12502
rthumb -9.12051 -41.2038
lclavicle -1.01722e-014 -2.42517e-014
lhumerus -88.3583 -21.7379 103.467
lradius 83.0211
lwrist -8.49293
lhand -32.2751 11.2239
lfingers 7.12502
lthumb -5.51432 41.1322
rfemur 16.997 -11.9524 23.9017
rtibia 25.2838
rfoot -158.159 -2.48669
rtoes -9.98546
lfemur -31.8417 0.603303 -13.889
ltibia 36.3158
lfoot -7.27734 0.36918
ltoes -6.45888
248
root 6.84922 18.926 -40.9057 -180.15 -4.68692 184.88
lowerback -1.48899 3.68771 2.02786
upperback 0.372248 4.77893 2.4207
thorax 1.17431 2.3629 1.46604
lowerneck -13.4619 -6.44675 -14.2442
upperneck 25.674 -10.997 13.237
head 12.2151 -5.40579 5.65204
rclavicle -2.90614e-014 -4.37326e-015
rhumerus -44.881 15.3195 -94.9493
rradius 127.47
rwrist 7.00843
rhand -35.6247 -10.791
rfingers 7.12502
rthumb -8.74769 -40.5897
lclavicle -2.90614e-014 -4.37326e-015
lhumerus -88.2108 -21.4088 103.063
lradius 84.3999
lwrist -8.256
lhand -32.2818 11.2821
lfingers 7.12502
lthumb -5.5208 41.1901
rfemur 17.073 -11.3799 23.8792
rtibia 27.1625
rfoot -158.516 -3.69592
rtoes -10.1613
lfemur -31.3882 -0.228304 -13.7635
ltibia 32.7966
lfoot -5.32247 0.255677
ltoes -6.10533
249
root 6.80502 18.999 -41.3767 -180.19 -4.6458 184.881
lowerback -1.54267 3.73057 1.87613
upperback 0.221071 4.84416 2.40694
thorax 1.03707 2.39508 1.5343
lowerneck -13.6388 -6.38921 -14.4355
upperneck 26.2431 -10.9463 13.1545
head 12.4748 -5.42555 5.67537
rclavicle -3.84454e-014 -5.76476e-015
rhumerus -45.9749 16.1214 -95.1054
rradius 128.328
rwrist 7.6538
rhand -35.0902 -9.98682
rfingers 7.12502
rthumb -8.23179 -39.8064
lclavicle -3.84454e-014 -5.76476e-015
lhumerus -87.802 -21.0017 102.78
lradius 85.5983
lwrist -8.30947
lhand -32.2148 11.102
lfingers 7.12502
lthumb -5.45609 41.0118
rfemur 16.6036 -10.8325 23.9004
rtibia 30.2413
rfoot -159.392 -4.81051
rtoes -10.525
lfemur -30.8762 -1.66901 -13.3585
ltibia 30.1867
lfoot -4.60087 0.878716
ltoes -5.83733
250
root 6.75852 19.0369 -41.8422 -180.368 -4.55019 184.923
lowerback -1.59656 3.76139 1.82811
upperback 0.237767 4.88533 2.39445
thorax 1.08087 2.41614 1.55372
lowerneck -13.7954 -6.34454 -14.4739
upperneck 26.5589 -10.8574 12.9904
head 12.6094 -5.40969 5.63897
rclavicle -4.55376e-014 -3.79679e-014
rhumerus -46.8101 16.5919 -95.1929
rradius 128.799
rwrist 8.22071
rhand -34.601 -8.8799
rfingers 7.12502
rthumb -7.75964 -38.7175
lclavicle -4.55376e-014 -3.79679e-014
lhumerus -87.0714 -20.6785 102.571
lradius 86.7095
lwrist -8.17003
lhand -32.4357 11.1453
lfingers 7.12502
lthumb -5.66938 41.0494
rfemur 15.6613 -10.377 23.929
rtibia 34.3
rfoot -160.82 -5.90871
rtoes -10.9792
lfemur -30.3245 -3.30916 -12.9198
ltibia 28.467
lfoot -4.79082 2.69944
ltoes -5.95242
251
root 6.71069 19.0501 -42.3076 -180.824 -4.33413 184.965
lowerback -1.50939 3.78068 1.68251
upperback 0.453566 4.90692 2.50367
thorax 1.23147 2.42497 1.74928
lowerneck -14.0624 -6.28576 -14.5438
upperneck 26.8511 -10.6896 12.7893
head 12.745 -5.35622 5.60478
rclavicle 3.6151e-014 5.38706e-014
rhumerus -47.5274 16.8654 -95.0444
rradius 129.041
rwrist 8.15252
rhand -33.996 -8.04368
rfingers 7.12502
rthumb -7.17575 -37.902
lclavicle 3.6151e-014 5.38706e-014
lhumerus -86.0533 -20.261 102.471
lradius 87.6636
lwrist -8.8805
lhand -32.6677 11.5353
lfingers 7.12502
lthumb -5.89339 41.4334
rfemur 14.578 -10.0093 23.8081
rtibia 39.039
rfoot -162.446 -6.76953
rtoes -10.3092
lfemur -29.4265 -4.68424 -12.5962
ltibia 27.4442
lfoot -5.08985 5.54445
ltoes -5.68091
252
root 6.6662 19.037 -42.763 -181.276 -4.36127 184.882
lowerback -1.08025 3.64713 1.56896
upperback 0.497558 4.75024 2.41891
thorax 1.03692 2.34862 1.6928
lowerneck -14.1867 -6.10921 -14.3759
upperneck 27.134 -10.4716 12.6403
head 12.8257 -5.2675 5.56048
rclavicle 5.5861e-014 3.73715e-014
rhumerus -48.3554 16.7181 -95.2291
rradius 128.883
rwrist 8.23301
rhand -33.28 -7.67627
rfingers 7.12502
rthumb -6.48454 -37.557
lclavicle 5.5861e-014 3.73715e-014
lhumerus -85.1599 -19.9834 102.398
lradius 88.7211
lwrist -8.68411
lhand -32.9743 11.7751
lfingers 7.12502
lthumb -6.18937 41.6647
rfemur 13.1586 -10.107 23.4037
rtibia 44.2012
rfoot -163.879 -7.4667
rtoes -9.00622
lfemur -28.5993 -4.91267 -12.9448
ltibia 26.901
lfoot -4.52613 7.89818
ltoes -5.86463
